HIERARCHY
ROOT Hips
{
	OFFSET -3.958830 18.904000 13.208200
	CHANNELS 6 Xposition Yposition Zposition Zrotation Yrotation Xrotation 
	JOINT LHipJoint
	{
		OFFSET 0.000000 0.000000 0.000000
		CHANNELS 3 Zrotation Yrotation Xrotation
		JOINT LeftUpLeg
		{
			OFFSET 1.800000 -1.400000 0.085000
			CHANNELS 3 Zrotation Yrotation Xrotation
			JOINT LeftLeg
			{
				OFFSET 2.215000 -6.000000 0.000000
				CHANNELS 3 Zrotation Yrotation Xrotation
				JOINT LeftFoot
				{
					OFFSET 2.500000 -6.900000 0.000000
					CHANNELS 3 Zrotation Yrotation Xrotation
					JOINT LeftToeBase
					{
						OFFSET 0.200000 -0.500000 1.950000
						CHANNELS 3 Zrotation Yrotation Xrotation
						End Site
						{
							OFFSET 0.000000 0.000000 0.000000
						}
					}
				}
			}
		}
	}
	JOINT RHipJoint
	{
		OFFSET 0.000000 0.000000 0.000000
		CHANNELS 3 Zrotation Yrotation Xrotation
		JOINT RightUpLeg
		{
			OFFSET -1.800000 -1.400000 0.085000
			CHANNELS 3 Zrotation Yrotation Xrotation
			JOINT RightLeg
			{
				OFFSET -2.215000 -6.000000 0.000000
				CHANNELS 3 Zrotation Yrotation Xrotation
				JOINT RightFoot
				{
					OFFSET -2.500000 -6.900000 0.000000
					CHANNELS 3 Zrotation Yrotation Xrotation
					JOINT RightToeBase
					{
						OFFSET -0.200000 -0.500000 1.950000
						CHANNELS 3 Zrotation Yrotation Xrotation
						End Site
						{
							OFFSET 0.000000 0.000000 0.000000
						}
					}
				}
			}
		}
	}
	JOINT LowerBack
	{
		OFFSET 0.000000 0.000000 0.000000
		CHANNELS 3 Zrotation Yrotation Xrotation
		JOINT Spine
		{
			OFFSET -0.087000 1.940000 -0.288900
			CHANNELS 3 Zrotation Yrotation Xrotation
			JOINT Spine1
			{
				OFFSET 0.000000 1.950000 0.060000
				CHANNELS 3 Zrotation Yrotation Xrotation
				JOINT Neck
				{
					OFFSET 0.000000 0.000000 0.000000
					CHANNELS 3 Zrotation Yrotation Xrotation
					JOINT Neck1
					{
						OFFSET 0.000000 1.600000 0.340000
						CHANNELS 3 Zrotation Yrotation Xrotation
						JOINT Head
						{
							OFFSET 0.000000 1.667000 -0.240000
							CHANNELS 3 Zrotation Yrotation Xrotation
							End Site
							{
								OFFSET 0.000000 0.000000 0.000000
							}
						}
					}
				}
				JOINT LeftShoulder
				{
					OFFSET 0.000000 0.000000 0.000000
					CHANNELS 3 Zrotation Yrotation Xrotation
					JOINT LeftArm
					{
						OFFSET 2.700000 1.550000 -0.730000
						CHANNELS 3 Zrotation Yrotation Xrotation
						JOINT LeftForeArm
						{
							OFFSET 5.450000 0.000000 0.000000
							CHANNELS 3 Zrotation Yrotation Xrotation
							JOINT LeftHand
							{
								OFFSET 3.450000 0.000000 0.000000
								CHANNELS 3 Zrotation Yrotation Xrotation
								JOINT LeftHandIndex1
								{
									OFFSET 0.750000 0.000000 0.000000
									CHANNELS 3 Zrotation Yrotation Xrotation
									End Site
									{
										OFFSET 0.000000 0.000000 0.000000
									}
								}
							}
						}
					}
				}
				JOINT RightShoulder
				{
					OFFSET 0.000000 0.000000 0.000000
					CHANNELS 3 Zrotation Yrotation Xrotation
					JOINT RightArm
					{
						OFFSET -2.700000 1.550000 -0.730000
						CHANNELS 3 Zrotation Yrotation Xrotation
						JOINT RightForeArm
						{
							OFFSET -5.450000 0.000000 0.000000
							CHANNELS 3 Zrotation Yrotation Xrotation
							JOINT RightHand
							{
								OFFSET -3.450000 0.000000 0.000000
								CHANNELS 3 Zrotation Yrotation Xrotation
								JOINT RightHandIndex1
								{
									OFFSET -0.750000 0.000000 0.000000
									CHANNELS 3 Zrotation Yrotation Xrotation
									End Site
									{
										OFFSET 0.000000 0.000000 0.000000
									}
								}
							}
						}
					}
				}
			}
		}
	}
}
MOTION
Frames: 10
Frame Time: 0.016667
-0.853750 11.988370 -0.888140 -10.768945 -23.023346 -16.958708 -15.239899 8.398550 4.400378 -2.070970 -9.330630 -43.949202 134.060444 -29.215297 35.995895 2.233031 14.602200 -0.214735 0.737150 0.808190 0.404690 19.186993 -5.632464 7.850975 -47.795309 11.393711 -79.293179 119.492918 -72.720579 26.630934 -3.047183 -11.928936 0.584336 0.736400 0.005690 -0.166550 -5.837423 0.985851 -10.296050 30.498667 -9.041211 40.407536 -31.431262 5.020878 13.618574 9.183620 -9.429908 -23.340442 -32.503540 28.459112 41.407856 3.850200 10.026070 -16.817130 -16.606330 -18.483015 -0.882498 10.938664 9.888840 -19.509380 136.421975 -42.091375 -109.331712 -3.001885 3.798851 0.578390 -0.140670 0.112090 0.093870 -0.630878 27.319216 21.311285 -86.229385 69.781469 -145.847523 11.570155 12.930646 0.183389 1.652741 -3.191946 -0.316920 0.623310 0.024730 -0.245230 
-0.882360 11.997820 -0.891590 -10.525902 -22.948028 -17.267985 -15.289616 8.377374 4.568048 0.234489 -9.897186 -44.199912 128.680236 -33.530515 42.604100 2.270594 14.984721 -0.365892 0.776500 0.845450 0.480810 19.133499 -5.463978 7.743651 -46.259394 12.306688 -78.568744 115.195387 -74.162736 30.595993 -3.117698 -11.955088 0.560874 0.744360 -0.080900 -0.167860 -5.677601 0.572439 -10.396977 28.156089 -9.734502 40.628754 -31.490724 5.353714 14.454586 9.903708 -8.172244 -25.274570 -32.798455 29.713613 43.934059 3.489770 10.816380 -19.010870 -18.436361 -21.995043 -0.282508 9.478818 7.769243 -21.051936 135.529940 -40.728634 -109.365224 -2.925529 3.826459 0.666390 -0.201730 0.192330 0.057770 -0.064252 29.506890 23.269554 -84.083009 67.366849 -150.740217 10.952304 12.939766 -0.309475 1.480395 -3.263840 -0.310920 0.631230 0.016460 -0.284920 
-0.919440 12.019480 -0.897390 -9.782826 -22.759497 -17.741929 -15.338405 8.176953 4.890610 3.286376 -11.106637 -44.160024 119.270715 -38.569773 53.671650 2.467918 15.998603 -0.660963 0.834290 0.900150 0.560340 19.088296 -5.258575 7.618978 -44.449883 13.326250 -77.763956 108.915928 -75.325882 36.369192 -3.255849 -12.255627 0.469289 0.758900 -0.177540 -0.159120 -5.547452 0.303110 -10.573784 25.406360 -10.006975 40.973053 -31.079871 6.123325 15.566225 10.090226 -6.847072 -27.174391 -33.026433 30.436905 46.672026 2.926050 10.874770 -20.857510 -19.642587 -24.563428 -0.415113 7.811975 3.222816 -21.400258 130.048875 -44.276642 -105.814021 -2.992301 3.673845 0.733260 -0.262060 0.269880 0.034260 0.722793 30.227583 26.173734 -83.615354 64.089979 -155.265364 10.840441 14.271133 -0.892903 1.609714 -3.240796 -0.284200 0.614660 -0.008940 -0.316960 
-0.961330 12.040010 -0.900870 -8.786996 -21.548558 -17.948464 -15.384081 7.990282 5.240203 5.779647 -12.517957 -45.116404 108.351422 -41.818631 65.844798 2.822986 17.575327 -1.052662 0.899090 0.979330 0.625310 19.052638 -5.054255 7.447843 -43.056530 13.744086 -76.429535 104.134705 -75.987255 40.769196 -3.380254 -12.517847 0.396315 0.784430 -0.252940 -0.158240 -5.366078 -0.053270 -10.761319 22.477144 -9.882784 40.630450 -30.560223 7.232341 17.120878 10.290249 -5.134976 -29.240560 -33.007203 30.909813 49.971391 3.322770 10.573950 -21.800830 -20.607990 -28.407508 -0.604353 6.118404 -1.756645 -21.986151 120.286634 -46.362920 -93.850707 -3.159941 3.260593 0.771620 -0.312760 0.338930 0.029680 1.019570 32.116729 29.131196 -81.793941 60.178271 -160.020774 10.448005 14.464482 -1.334480 1.546715 -3.265240 -0.247940 0.607330 -0.047250 -0.326980 
-0.989980 12.071210 -0.905580 -7.781235 -21.314204 -18.412267 -15.428671 7.903302 5.481305 8.490362 -12.525882 -46.174387 96.147729 -42.591078 78.857228 3.225985 19.555332 -1.515205 0.960920 1.042990 0.704660 19.021361 -4.867742 7.398944 -42.860655 14.081610 -75.960190 100.870702 -75.780056 43.488541 -3.498482 -12.786974 0.313556 0.805620 -0.342330 -0.151650 -5.240319 -0.291055 -10.907371 19.960954 -9.273875 40.946925 -30.293746 8.443065 17.612479 10.299157 -3.554413 -30.345915 -32.273882 30.771316 53.667931 3.228360 10.516230 -23.316170 -22.343007 -32.288921 -2.167392 5.760796 -7.796436 -22.731535 111.664935 -48.621516 -81.629643 -3.313188 2.730761 0.830120 -0.365470 0.412930 0.013600 2.098425 33.802259 31.804066 -80.327312 57.555269 -163.016304 9.109957 15.736499 -1.919305 1.575517 -3.138598 -0.222120 0.591420 -0.080490 -0.357180 
-1.008290 12.111490 -0.899420 -6.634703 -21.524671 -18.421351 -15.464583 8.004908 5.489018 10.820958 -11.947651 -46.720458 79.310535 -40.790180 96.279497 3.758055 22.625219 -2.171968 0.993010 1.062300 0.785230 18.997439 -4.692730 7.473156 -42.821547 14.947565 -75.801701 92.042835 -76.776689 51.560986 -3.741502 -13.641514 0.092613 0.826300 -0.407970 -0.150700 -5.153634 -0.575223 -10.973790 17.544960 -8.750786 40.244547 -29.802197 9.446685 17.947927 9.935866 -1.929901 -31.279998 -31.237680 31.630623 57.660631 2.662840 11.009370 -24.477480 -24.123662 -36.920735 -3.714637 3.392070 -11.801395 -25.064799 98.795767 -52.951217 -65.635700 -3.495509 2.128203 0.904650 -0.397600 0.468530 -0.025310 3.862662 36.143186 33.477712 -78.979913 56.654394 -164.416721 8.587153 16.754623 -2.275173 1.564228 -3.055565 -0.238540 0.603640 -0.080140 -0.409390 
-1.027060 12.169500 -0.912630 -5.840199 -21.020609 -18.514570 -15.453036 8.331339 5.188925 11.457189 -11.298449 -47.090390 67.381955 -37.160136 107.778645 3.917997 24.246592 -2.569640 1.050010 1.109660 0.892790 19.001890 -4.723193 7.569846 -42.110846 15.606626 -75.509586 83.311585 -76.684033 59.273522 -4.012999 -14.657144 -0.170479 0.873490 -0.490610 -0.147230 -5.119536 -0.799433 -10.929906 15.171728 -8.876268 39.718702 -29.332830 10.247186 19.028206 9.425637 -0.511857 -32.204117 -30.302431 31.986781 60.705422 1.738280 11.298960 -26.433900 -24.875969 -41.482509 -5.049163 1.750812 -15.743008 -27.165760 79.955582 -54.407009 -47.213186 -3.723809 2.253943 0.983940 -0.432260 0.532010 -0.072470 4.890080 38.292732 34.932127 -78.046957 54.784553 -165.386820 8.340620 18.597426 -2.824349 1.681475 -2.970543 -0.254740 0.617000 -0.085100 -0.472420 
-1.037100 12.222760 -0.921750 -5.337626 -21.007497 -18.407518 -15.469098 8.712830 4.915642 12.024331 -10.130004 -47.973442 59.778789 -32.838479 115.345516 3.788361 23.977425 -2.585767 1.065860 1.124670 0.939680 18.969919 -4.711536 7.620717 -41.358649 16.551795 -75.240390 76.390495 -76.429893 65.292669 -4.248472 -15.588918 -0.382803 0.874730 -0.533930 -0.136970 -5.007851 -1.214571 -10.943323 12.716891 -8.973901 39.682015 -28.718205 10.451068 20.040220 9.044827 0.890987 -34.110484 -29.522583 32.382465 62.968710 1.558940 11.999580 -27.381490 -25.340658 -45.867428 -5.223582 0.364528 -18.576258 -29.976699 73.900120 -49.250358 -39.481624 -4.120220 2.592674 1.027510 -0.453600 0.577250 -0.097900 5.618394 39.906228 37.407825 -78.129287 51.868356 -165.151018 10.175527 21.778957 -3.511538 2.161516 -3.043660 -0.250890 0.612200 -0.088010 -0.497400 
-1.047010 12.297450 -0.941410 -4.892050 -20.233988 -18.146185 -15.460003 8.869509 4.828755 11.244016 -9.990989 -49.592596 56.534206 -30.368177 117.034311 3.624709 23.376896 -2.514113 1.059610 1.113610 0.947630 18.966462 -4.671042 7.600714 -40.517154 17.659227 -74.813707 67.988213 -75.482930 72.523567 -4.501425 -16.821219 -0.644720 0.866880 -0.538550 -0.122210 -4.964796 -1.514267 -11.027170 10.788932 -9.353856 39.749714 -28.662800 9.784336 21.254388 8.616047 1.814620 -35.478611 -28.933545 32.207461 63.506746 1.548940 12.545850 -27.201390 -24.941191 -50.385209 -5.606264 0.675317 -20.208327 -34.137238 74.564428 -44.749282 -36.409456 -4.464326 2.748827 1.028420 -0.445610 0.580710 -0.109270 5.455907 41.041650 40.012936 -79.291486 48.568189 -162.487671 11.796458 27.175107 -4.621069 2.963870 -3.100274 -0.248040 0.592460 -0.084510 -0.505390 
-1.046210 12.382310 -0.957850 -4.633363 -17.767844 -17.577866 -15.464450 8.888130 4.855842 8.767633 -10.799478 -51.949378 54.594503 -28.982153 117.918854 3.493290 23.059717 -2.513055 1.092650 1.158460 0.975330 18.975997 -4.556664 7.589035 -41.037217 17.515597 -73.786925 62.717569 -74.568801 76.528503 -4.619173 -17.413458 -0.779484 0.895280 -0.566790 -0.114410 -4.850899 -1.852147 -11.134894 9.645471 -9.436111 39.290163 -28.431740 8.771490 22.979255 8.519240 2.427670 -36.014664 -28.406855 31.691784 64.730976 1.198430 12.473250 -28.266630 -24.214446 -53.679102 -5.136042 -1.020635 -22.638763 -38.605422 78.635176 -43.876823 -37.686417 -4.638631 2.711551 1.044620 -0.453550 0.604500 -0.117680 4.479994 42.110075 39.999207 -79.907850 47.825750 -160.051871 8.939570 31.013568 -5.788301 3.356824 -2.889459 -0.238870 0.590190 -0.091660 -0.516560 
